<?xml version="1.0" standalone="no"?>
<!DOCTYPE svg PUBLIC "-//W3C//DTD SVG 20010904//EN"
 "http://www.w3.org/TR/2001/REC-SVG-20010904/DTD/svg10.dtd">
<svg version="1.0" xmlns="http://www.w3.org/2000/svg"
 width="296.000000pt" height="296.000000pt" viewBox="0 0 296.000000 296.000000"
 preserveAspectRatio="xMidYMid meet">
<metadata>
Created by potrace 1.11, written by Peter Selinger 2001-2013
</metadata>
<g transform="translate(0.000000,296.000000) scale(0.100000,-0.100000)"
fill="#000000" stroke="none">
<path d="M1295 2949 c-181 -25 -380 -90 -528 -173 -74 -41 -81 -54 -20 -36 21
7 125 14 231 17 l192 6 0 -105 0 -105 -168 -6 c-282 -9 -322 -45 -322 -289 l0
-108 210 0 210 0 0 -100 0 -100 -210 0 -210 0 0 -680 0 -680 -130 0 -130 0 0
680 0 680 -125 0 -125 0 0 100 0 100 124 0 123 0 5 133 c4 105 11 147 31 207
14 41 24 76 22 78 -1 2 -34 -31 -71 -73 -189 -210 -308 -441 -366 -708 -31
-144 -31 -427 0 -570 65 -298 189 -526 401 -738 208 -207 431 -331 716 -397
100 -24 322 -44 362 -33 25 7 24 8 -15 19 l-42 13 0 124 0 123 80 -34 c168
-73 346 -98 499 -70 253 46 372 210 371 515 l-1 116 -21 -30 c-76 -106 -193
-186 -318 -216 -88 -21 -252 -17 -335 9 -225 69 -379 256 -442 536 -20 89 -23
365 -4 451 36 171 95 294 188 395 72 78 147 127 243 161 54 19 87 23 190 23
135 1 199 -13 293 -61 49 -24 157 -124 190 -173 15 -24 16 -20 16 88 l1 112
130 0 130 0 -2 -750 c-2 -413 -1 -750 2 -750 10 0 110 167 145 242 49 106 89
234 111 353 28 146 25 403 -4 542 -62 287 -197 537 -402 742 -205 206 -454
340 -745 401 -116 24 -369 34 -480 19z"/>
<path d="M1833 1952 c-106 -38 -176 -104 -229 -216 -51 -110 -68 -212 -61
-385 8 -196 34 -285 116 -398 64 -88 185 -143 316 -143 278 0 435 210 435 580
0 276 -85 462 -248 542 -60 30 -76 33 -172 36 -82 2 -116 -2 -157 -16z"/>
</g>
</svg>
